<?xml version="1.0" encoding="UTF-8"?>
<svg xmlns="http://www.w3.org/2000/svg" viewBox="0 0 960 472" width="960" height="472">
  <defs>
  <marker id="arr" markerWidth="9" markerHeight="7" refX="8.5" refY="3.5" orient="auto">
    <polygon points="0 0,9 3.5,0 7" fill="#94a3b8"/>
  </marker>
  <marker id="arr-dash" markerWidth="9" markerHeight="7" refX="8.5" refY="3.5" orient="auto">
    <polygon points="0 0,9 3.5,0 7" fill="#64748b"/>
  </marker>
</defs>
  <rect width="960" height="472" fill="#0f172a"/>
  <text x="48" y="42" font-family="'Segoe UI',system-ui,sans-serif" font-size="20" font-weight="700" fill="#f1f5f9">DriveTree Architecture</text>
  <text x="48" y="62" font-family="'Segoe UI',system-ui,sans-serif" font-size="12" fill="#64748b">Next.js 16 · NestJS 11 · Neon PostgreSQL + pgvector · Vercel · Railway · GitHub Actions</text>
  <rect x="28" y="72" width="904" height="352" rx="12" fill="#1e293b" stroke="#334155" stroke-width="1"/>
  <rect x="15" y="224" width="130" height="72" rx="10" fill="#1e293b" stroke="#94a3b8" stroke-width="2.5"/><text x="80" y="251" text-anchor="middle" font-family="'Segoe UI',system-ui,sans-serif" font-size="14" font-weight="700" fill="#f1f5f9">사용자</text><text x="80" y="273" text-anchor="middle" font-family="'Segoe UI',system-ui,sans-serif" font-size="11" fill="#e2e8f0" opacity="0.9">Browser</text>
<rect x="245" y="224" width="130" height="72" rx="10" fill="#1e3a8a" stroke="#60a5fa" stroke-width="2.5"/><text x="310" y="251" text-anchor="middle" font-family="'Segoe UI',system-ui,sans-serif" font-size="14" font-weight="700" fill="#f1f5f9">Next.js 16</text><text x="310" y="273" text-anchor="middle" font-family="'Segoe UI',system-ui,sans-serif" font-size="11" fill="#bfdbfe" opacity="0.9">SSG/ISR · CSR · Vercel</text>
<rect x="475" y="224" width="130" height="72" rx="10" fill="#14532d" stroke="#4ade80" stroke-width="2.5"/><text x="540" y="251" text-anchor="middle" font-family="'Segoe UI',system-ui,sans-serif" font-size="14" font-weight="700" fill="#f1f5f9">NestJS 11</text><text x="540" y="273" text-anchor="middle" font-family="'Segoe UI',system-ui,sans-serif" font-size="11" fill="#bbf7d0" opacity="0.9">JWT Guard · Railway</text>
<rect x="705" y="224" width="130" height="72" rx="10" fill="#065f46" stroke="#34d399" stroke-width="2.5"/><text x="770" y="251" text-anchor="middle" font-family="'Segoe UI',system-ui,sans-serif" font-size="14" font-weight="700" fill="#f1f5f9">Neon PostgreSQL</text><text x="770" y="273" text-anchor="middle" font-family="'Segoe UI',system-ui,sans-serif" font-size="11" fill="#a7f3d0" opacity="0.9">pgvector · 4개 테이블</text>
<rect x="360" y="69" width="130" height="72" rx="10" fill="#3b0764" stroke="#a78bfa" stroke-width="2.5"/><text x="425" y="96" text-anchor="middle" font-family="'Segoe UI',system-ui,sans-serif" font-size="14" font-weight="700" fill="#f1f5f9">GitHub Actions</text><text x="425" y="118" text-anchor="middle" font-family="'Segoe UI',system-ui,sans-serif" font-size="11" fill="#ddd6fe" opacity="0.9">lint · build · test · deploy</text><line x1="145" y1="260" x2="245" y2="260" stroke="#94a3b8" stroke-width="2"  marker-end="url(#arr)"/><rect x="168" y="240" width="54" height="17" rx="3" fill="#0f172a" opacity="0.92"/><text x="195" y="253" text-anchor="middle" font-family="'Segoe UI',system-ui,sans-serif" font-size="11" font-weight="600" fill="#e2e8f0">HTTPS</text>
<line x1="375" y1="260" x2="475" y2="260" stroke="#94a3b8" stroke-width="2"  marker-end="url(#arr)"/><rect x="378" y="240" width="94" height="17" rx="3" fill="#0f172a" opacity="0.92"/><text x="425" y="253" text-anchor="middle" font-family="'Segoe UI',system-ui,sans-serif" font-size="11" font-weight="600" fill="#e2e8f0">JWT Cookie</text>
<line x1="605" y1="260" x2="705" y2="260" stroke="#94a3b8" stroke-width="2"  marker-end="url(#arr)"/><rect x="616" y="240" width="78" height="17" rx="3" fill="#0f172a" opacity="0.92"/><text x="655" y="253" text-anchor="middle" font-family="'Segoe UI',system-ui,sans-serif" font-size="11" font-weight="600" fill="#e2e8f0">pgvector</text>
<path d="M 395 141 C 335 198 295 208 250 224" fill="none" stroke="#64748b" stroke-width="1.5" stroke-dasharray="6 3" marker-end="url(#arr-dash)"/><rect x="256" y="162" width="98" height="17" rx="3" fill="#0f172a" opacity="0.92"/><text x="305" y="175" text-anchor="middle" font-family="'Segoe UI',system-ui,sans-serif" font-size="11" font-weight="600" fill="#e2e8f0">Vercel 배포</text>
<path d="M 455 141 C 518 198 550 208 480 224" fill="none" stroke="#64748b" stroke-width="1.5" stroke-dasharray="6 3" marker-end="url(#arr-dash)"/><rect x="492" y="162" width="106" height="17" rx="3" fill="#0f172a" opacity="0.92"/><text x="545" y="175" text-anchor="middle" font-family="'Segoe UI',system-ui,sans-serif" font-size="11" font-weight="600" fill="#e2e8f0">Railway 배포</text>
  <rect x="50" y="440" width="12" height="12" rx="3" fill="#60a5fa"/><text x="67" y="450" font-family="'Segoe UI',system-ui,sans-serif" font-size="11" fill="#94a3b8">Frontend (Vercel)</text><rect x="250" y="440" width="12" height="12" rx="3" fill="#4ade80"/><text x="267" y="450" font-family="'Segoe UI',system-ui,sans-serif" font-size="11" fill="#94a3b8">Backend (Railway)</text><rect x="450" y="440" width="12" height="12" rx="3" fill="#34d399"/><text x="467" y="450" font-family="'Segoe UI',system-ui,sans-serif" font-size="11" fill="#94a3b8">Database (Neon)</text><rect x="650" y="440" width="12" height="12" rx="3" fill="#a78bfa"/><text x="667" y="450" font-family="'Segoe UI',system-ui,sans-serif" font-size="11" fill="#94a3b8">CI/CD</text>
</svg>