<?xml version="1.0" encoding="UTF-8"?>
<svg xmlns="http://www.w3.org/2000/svg" viewBox="0 0 1030 430" width="1030" height="430">
  <defs>
  <marker id="arr" markerWidth="9" markerHeight="7" refX="8.5" refY="3.5" orient="auto">
    <polygon points="0 0,9 3.5,0 7" fill="#94a3b8"/>
  </marker>
  <marker id="arr-dash" markerWidth="9" markerHeight="7" refX="8.5" refY="3.5" orient="auto">
    <polygon points="0 0,9 3.5,0 7" fill="#64748b"/>
  </marker>
</defs>
  <rect width="1030" height="430" fill="#0f172a"/>
  <text x="48" y="42" font-family="'Segoe UI',system-ui,sans-serif" font-size="20" font-weight="700" fill="#f1f5f9">DriveTree Architecture</text>
  <text x="48" y="62" font-family="'Segoe UI',system-ui,sans-serif" font-size="12" fill="#64748b">Next.js 16 · NestJS 11 · Neon PostgreSQL + pgvector · Vercel · Railway · GitHub Actions</text>
  <rect x="28" y="72" width="974" height="305" rx="12" fill="#1e293b" stroke="#334155" stroke-width="1"/>
  <rect x="25" y="240" width="130" height="80" rx="10" fill="#1e293b" stroke="#94a3b8" stroke-width="2.5"/><text x="90" y="272" text-anchor="middle" font-family="'Segoe UI',system-ui,sans-serif" font-size="14" font-weight="700" fill="#f1f5f9">사용자</text><text x="90" y="294" text-anchor="middle" font-family="'Segoe UI',system-ui,sans-serif" font-size="11" fill="#e2e8f0" opacity="0.9">Browser</text>
<rect x="295" y="240" width="130" height="80" rx="10" fill="#1e3a8a" stroke="#60a5fa" stroke-width="2.5"/><text x="360" y="272" text-anchor="middle" font-family="'Segoe UI',system-ui,sans-serif" font-size="14" font-weight="700" fill="#f1f5f9">Next.js 16</text><text x="360" y="294" text-anchor="middle" font-family="'Segoe UI',system-ui,sans-serif" font-size="11" fill="#bfdbfe" opacity="0.9">SSG/ISR · CSR · Vercel</text>
<rect x="565" y="240" width="130" height="80" rx="10" fill="#14532d" stroke="#4ade80" stroke-width="2.5"/><text x="630" y="272" text-anchor="middle" font-family="'Segoe UI',system-ui,sans-serif" font-size="14" font-weight="700" fill="#f1f5f9">NestJS 11</text><text x="630" y="294" text-anchor="middle" font-family="'Segoe UI',system-ui,sans-serif" font-size="11" fill="#bbf7d0" opacity="0.9">JWT Guard · Railway</text>
<rect x="835" y="240" width="130" height="80" rx="10" fill="#065f46" stroke="#34d399" stroke-width="2.5"/><text x="900" y="272" text-anchor="middle" font-family="'Segoe UI',system-ui,sans-serif" font-size="14" font-weight="700" fill="#f1f5f9">Neon PostgreSQL</text><text x="900" y="294" text-anchor="middle" font-family="'Segoe UI',system-ui,sans-serif" font-size="11" fill="#a7f3d0" opacity="0.9">pgvector · 4개 테이블</text>
<rect x="430" y="75" width="130" height="80" rx="10" fill="#3b0764" stroke="#a78bfa" stroke-width="2.5"/><text x="495" y="107" text-anchor="middle" font-family="'Segoe UI',system-ui,sans-serif" font-size="14" font-weight="700" fill="#f1f5f9">GitHub Actions</text><text x="495" y="129" text-anchor="middle" font-family="'Segoe UI',system-ui,sans-serif" font-size="11" fill="#ddd6fe" opacity="0.9">lint · build · test · deploy</text><line x1="155" y1="280" x2="295" y2="280" stroke="#94a3b8" stroke-width="2"  marker-end="url(#arr)"/><rect x="198" y="260" width="54" height="17" rx="3" fill="#0f172a" opacity="0.92"/><text x="225" y="273" text-anchor="middle" font-family="'Segoe UI',system-ui,sans-serif" font-size="11" font-weight="600" fill="#e2e8f0">HTTPS</text>
<line x1="425" y1="280" x2="565" y2="280" stroke="#94a3b8" stroke-width="2"  marker-end="url(#arr)"/><rect x="448" y="260" width="94" height="17" rx="3" fill="#0f172a" opacity="0.92"/><text x="495" y="273" text-anchor="middle" font-family="'Segoe UI',system-ui,sans-serif" font-size="11" font-weight="600" fill="#e2e8f0">JWT Cookie</text>
<line x1="695" y1="280" x2="835" y2="280" stroke="#94a3b8" stroke-width="2"  marker-end="url(#arr)"/><rect x="726" y="260" width="78" height="17" rx="3" fill="#0f172a" opacity="0.92"/><text x="765" y="273" text-anchor="middle" font-family="'Segoe UI',system-ui,sans-serif" font-size="11" font-weight="600" fill="#e2e8f0">pgvector</text>
<line x1="463" y1="155" x2="360" y2="240" stroke="#64748b" stroke-width="1.5" stroke-dasharray="6 3" marker-end="url(#arr-dash)"/><rect x="362" y="177" width="98" height="17" rx="3" fill="#0f172a" opacity="0.92"/><text x="411" y="190" text-anchor="middle" font-family="'Segoe UI',system-ui,sans-serif" font-size="11" font-weight="600" fill="#e2e8f0">Vercel 배포</text>
<line x1="527" y1="155" x2="630" y2="240" stroke="#64748b" stroke-width="1.5" stroke-dasharray="6 3" marker-end="url(#arr-dash)"/><rect x="525" y="177" width="106" height="17" rx="3" fill="#0f172a" opacity="0.92"/><text x="578" y="190" text-anchor="middle" font-family="'Segoe UI',system-ui,sans-serif" font-size="11" font-weight="600" fill="#e2e8f0">Railway 배포</text>
  <rect x="50" y="390" width="12" height="12" rx="3" fill="#60a5fa"/><text x="67" y="400" font-family="'Segoe UI',system-ui,sans-serif" font-size="11" fill="#94a3b8">Frontend (Vercel)</text><rect x="260" y="390" width="12" height="12" rx="3" fill="#4ade80"/><text x="277" y="400" font-family="'Segoe UI',system-ui,sans-serif" font-size="11" fill="#94a3b8">Backend (Railway)</text><rect x="470" y="390" width="12" height="12" rx="3" fill="#34d399"/><text x="487" y="400" font-family="'Segoe UI',system-ui,sans-serif" font-size="11" fill="#94a3b8">Database (Neon)</text><rect x="680" y="390" width="12" height="12" rx="3" fill="#a78bfa"/><text x="697" y="400" font-family="'Segoe UI',system-ui,sans-serif" font-size="11" fill="#94a3b8">CI/CD</text>
</svg>